<svg xmlns="http://www.w3.org/2000/svg" width="900" height="360" viewBox="0 0 900 360" role="img" aria-labelledby="title desc">
  <title id="title">2026 GitHub build sprint for last-26</title>
  <desc id="desc">Focused contribution heatmap and monthly ramp from February 2026 to today.</desc>
  <defs>
    <linearGradient id="bg" x1="0" y1="0" x2="900" y2="360" gradientUnits="userSpaceOnUse">
      <stop offset="0" stop-color="#0D1117"/>
      <stop offset="0.55" stop-color="#101827"/>
      <stop offset="1" stop-color="#16213A"/>
    </linearGradient>
    <linearGradient id="barGradient" x1="0" y1="0" x2="0" y2="1">
      <stop offset="0" stop-color="#50FA7B"/>
      <stop offset="0.5" stop-color="#70A5FD"/>
      <stop offset="1" stop-color="#BF91F3"/>
    </linearGradient>
    <filter id="glow" x="-20%" y="-20%" width="140%" height="140%">
      <feGaussianBlur stdDeviation="10" result="blur"/>
      <feMerge>
        <feMergeNode in="blur"/>
        <feMergeNode in="SourceGraphic"/>
      </feMerge>
    </filter>
  </defs>
  <rect width="900" height="360" rx="18" fill="url(#bg)"/>
  <circle cx="778" cy="36" r="94" fill="#70A5FD" opacity="0.08" filter="url(#glow)"/>
  <text x="42" y="42" fill="#E6EDF3" fill-opacity="1" font-family="Segoe UI, Ubuntu, sans-serif" font-size="26" font-weight="800" text-anchor="start">2026 Build Sprint</text>
  <text x="42" y="65" fill="#8B949E" fill-opacity="1" font-family="Segoe UI, Ubuntu, sans-serif" font-size="13" font-weight="600" text-anchor="start">Focused activity window: Feb 01, 2026 -&gt; May 30, 2026</text>
  <rect x="42" y="78" width="188" height="72" rx="12" fill="#161B22" stroke="#30363D"/><text x="58" y="103" fill="#8B949E" fill-opacity="1" font-family="Segoe UI, Ubuntu, sans-serif" font-size="12" font-weight="600" text-anchor="start">Focused total</text><text x="58" y="132" fill="#50FA7B" fill-opacity="1" font-family="Segoe UI, Ubuntu, sans-serif" font-size="26" font-weight="800" text-anchor="start">1.08k</text><text x="134" y="132" fill="#B7C7E6" fill-opacity="1" font-family="Segoe UI, Ubuntu, sans-serif" font-size="12" font-weight="500" text-anchor="start">since Feb 2026</text><rect x="248" y="78" width="188" height="72" rx="12" fill="#161B22" stroke="#30363D"/><text x="264" y="103" fill="#8B949E" fill-opacity="1" font-family="Segoe UI, Ubuntu, sans-serif" font-size="12" font-weight="600" text-anchor="start">Active days</text><text x="264" y="132" fill="#70A5FD" fill-opacity="1" font-family="Segoe UI, Ubuntu, sans-serif" font-size="26" font-weight="800" text-anchor="start">59</text><text x="340" y="132" fill="#B7C7E6" fill-opacity="1" font-family="Segoe UI, Ubuntu, sans-serif" font-size="12" font-weight="500" text-anchor="start">119 day window</text><rect x="454" y="78" width="188" height="72" rx="12" fill="#161B22" stroke="#30363D"/><text x="470" y="103" fill="#8B949E" fill-opacity="1" font-family="Segoe UI, Ubuntu, sans-serif" font-size="12" font-weight="600" text-anchor="start">Best day</text><text x="470" y="132" fill="#70A5FD" fill-opacity="1" font-family="Segoe UI, Ubuntu, sans-serif" font-size="26" font-weight="800" text-anchor="start">69</text><text x="546" y="132" fill="#B7C7E6" fill-opacity="1" font-family="Segoe UI, Ubuntu, sans-serif" font-size="12" font-weight="500" text-anchor="start">Mar 20</text><rect x="660" y="78" width="188" height="72" rx="12" fill="#161B22" stroke="#30363D"/><text x="676" y="103" fill="#8B949E" fill-opacity="1" font-family="Segoe UI, Ubuntu, sans-serif" font-size="12" font-weight="600" text-anchor="start">Current streak</text><text x="676" y="132" fill="#70A5FD" fill-opacity="1" font-family="Segoe UI, Ubuntu, sans-serif" font-size="26" font-weight="800" text-anchor="start">35</text><text x="752" y="132" fill="#B7C7E6" fill-opacity="1" font-family="Segoe UI, Ubuntu, sans-serif" font-size="12" font-weight="500" text-anchor="start">longest 35 days</text>
  <text x="42" y="160" fill="#8B949E" fill-opacity="1" font-family="Segoe UI, Ubuntu, sans-serif" font-size="12" font-weight="600" text-anchor="start">Feb</text><text x="122" y="160" fill="#8B949E" fill-opacity="1" font-family="Segoe UI, Ubuntu, sans-serif" font-size="12" font-weight="600" text-anchor="start">Mar</text><text x="202" y="160" fill="#8B949E" fill-opacity="1" font-family="Segoe UI, Ubuntu, sans-serif" font-size="12" font-weight="600" text-anchor="start">Apr</text><text x="282" y="160" fill="#8B949E" fill-opacity="1" font-family="Segoe UI, Ubuntu, sans-serif" font-size="12" font-weight="600" text-anchor="start">May</text>
  <rect x="42" y="174" width="15" height="15" rx="4" fill="#242938"><title>2026-02-01: 0 contributions</title></rect><rect x="42" y="194" width="15" height="15" rx="4" fill="#242938"><title>2026-02-02: 0 contributions</title></rect><rect x="42" y="214" width="15" height="15" rx="4" fill="#242938"><title>2026-02-03: 0 contributions</title></rect><rect x="42" y="234" width="15" height="15" rx="4" fill="#242938"><title>2026-02-04: 0 contributions</title></rect><rect x="42" y="254" width="15" height="15" rx="4" fill="#242938"><title>2026-02-05: 0 contributions</title></rect><rect x="42" y="274" width="15" height="15" rx="4" fill="#242938"><title>2026-02-06: 0 contributions</title></rect><rect x="42" y="294" width="15" height="15" rx="4" fill="#242938"><title>2026-02-07: 0 contributions</title></rect><rect x="62" y="174" width="15" height="15" rx="4" fill="#242938"><title>2026-02-08: 0 contributions</title></rect><rect x="62" y="194" width="15" height="15" rx="4" fill="#242938"><title>2026-02-09: 0 contributions</title></rect><rect x="62" y="214" width="15" height="15" rx="4" fill="#242938"><title>2026-02-10: 0 contributions</title></rect><rect x="62" y="234" width="15" height="15" rx="4" fill="#242938"><title>2026-02-11: 0 contributions</title></rect><rect x="62" y="254" width="15" height="15" rx="4" fill="#242938"><title>2026-02-12: 0 contributions</title></rect><rect x="62" y="274" width="15" height="15" rx="4" fill="#242938"><title>2026-02-13: 0 contributions</title></rect><rect x="62" y="294" width="15" height="15" rx="4" fill="#242938"><title>2026-02-14: 0 contributions</title></rect><rect x="82" y="174" width="15" height="15" rx="4" fill="#242938"><title>2026-02-15: 0 contributions</title></rect><rect x="82" y="194" width="15" height="15" rx="4" fill="#242938"><title>2026-02-16: 0 contributions</title></rect><rect x="82" y="214" width="15" height="15" rx="4" fill="#242938"><title>2026-02-17: 0 contributions</title></rect><rect x="82" y="234" width="15" height="15" rx="4" fill="#242938"><title>2026-02-18: 0 contributions</title></rect><rect x="82" y="254" width="15" height="15" rx="4" fill="#242938"><title>2026-02-19: 0 contributions</title></rect><rect x="82" y="274" width="15" height="15" rx="4" fill="#242938"><title>2026-02-20: 0 contributions</title></rect><rect x="82" y="294" width="15" height="15" rx="4" fill="#242938"><title>2026-02-21: 0 contributions</title></rect><rect x="102" y="174" width="15" height="15" rx="4" fill="#242938"><title>2026-02-22: 0 contributions</title></rect><rect x="102" y="194" width="15" height="15" rx="4" fill="#242938"><title>2026-02-23: 0 contributions</title></rect><rect x="102" y="214" width="15" height="15" rx="4" fill="#242938"><title>2026-02-24: 0 contributions</title></rect><rect x="102" y="234" width="15" height="15" rx="4" fill="#242938"><title>2026-02-25: 0 contributions</title></rect><rect x="102" y="254" width="15" height="15" rx="4" fill="#242938"><title>2026-02-26: 0 contributions</title></rect><rect x="102" y="274" width="15" height="15" rx="4" fill="#242938"><title>2026-02-27: 0 contributions</title></rect><rect x="102" y="294" width="15" height="15" rx="4" fill="#242938"><title>2026-02-28: 0 contributions</title></rect><rect x="122" y="174" width="15" height="15" rx="4" fill="#242938"><title>2026-03-01: 0 contributions</title></rect><rect x="122" y="194" width="15" height="15" rx="4" fill="#242938"><title>2026-03-02: 0 contributions</title></rect><rect x="122" y="214" width="15" height="15" rx="4" fill="#242938"><title>2026-03-03: 0 contributions</title></rect><rect x="122" y="234" width="15" height="15" rx="4" fill="#242938"><title>2026-03-04: 0 contributions</title></rect><rect x="122" y="254" width="15" height="15" rx="4" fill="#242938"><title>2026-03-05: 0 contributions</title></rect><rect x="122" y="274" width="15" height="15" rx="4" fill="#242938"><title>2026-03-06: 0 contributions</title></rect><rect x="122" y="294" width="15" height="15" rx="4" fill="#242938"><title>2026-03-07: 0 contributions</title></rect><rect x="142" y="174" width="15" height="15" rx="4" fill="#242938"><title>2026-03-08: 0 contributions</title></rect><rect x="142" y="194" width="15" height="15" rx="4" fill="#242938"><title>2026-03-09: 0 contributions</title></rect><rect x="142" y="214" width="15" height="15" rx="4" fill="#242938"><title>2026-03-10: 0 contributions</title></rect><rect x="142" y="234" width="15" height="15" rx="4" fill="#242938"><title>2026-03-11: 0 contributions</title></rect><rect x="142" y="254" width="15" height="15" rx="4" fill="#242938"><title>2026-03-12: 0 contributions</title></rect><rect x="142" y="274" width="15" height="15" rx="4" fill="#3178C6"><title>2026-03-13: 7 contributions</title></rect><rect x="142" y="294" width="15" height="15" rx="4" fill="#242938"><title>2026-03-14: 0 contributions</title></rect><rect x="162" y="174" width="15" height="15" rx="4" fill="#3178C6"><title>2026-03-15: 9 contributions</title></rect><rect x="162" y="194" width="15" height="15" rx="4" fill="#3178C6"><title>2026-03-16: 13 contributions</title></rect><rect x="162" y="214" width="15" height="15" rx="4" fill="#242938"><title>2026-03-17: 0 contributions</title></rect><rect x="162" y="234" width="15" height="15" rx="4" fill="#173B57"><title>2026-03-18: 5 contributions</title></rect><rect x="162" y="254" width="15" height="15" rx="4" fill="#3178C6"><title>2026-03-19: 7 contributions</title></rect><rect x="162" y="274" width="15" height="15" rx="4" fill="#50FA7B"><title>2026-03-20: 69 contributions</title></rect><rect x="162" y="294" width="15" height="15" rx="4" fill="#BF91F3"><title>2026-03-21: 38 contributions</title></rect><rect x="182" y="174" width="15" height="15" rx="4" fill="#70A5FD"><title>2026-03-22: 20 contributions</title></rect><rect x="182" y="194" width="15" height="15" rx="4" fill="#242938"><title>2026-03-23: 0 contributions</title></rect><rect x="182" y="214" width="15" height="15" rx="4" fill="#242938"><title>2026-03-24: 0 contributions</title></rect><rect x="182" y="234" width="15" height="15" rx="4" fill="#3178C6"><title>2026-03-25: 10 contributions</title></rect><rect x="182" y="254" width="15" height="15" rx="4" fill="#242938"><title>2026-03-26: 0 contributions</title></rect><rect x="182" y="274" width="15" height="15" rx="4" fill="#3178C6"><title>2026-03-27: 13 contributions</title></rect><rect x="182" y="294" width="15" height="15" rx="4" fill="#3178C6"><title>2026-03-28: 9 contributions</title></rect><rect x="202" y="174" width="15" height="15" rx="4" fill="#242938"><title>2026-03-29: 0 contributions</title></rect><rect x="202" y="194" width="15" height="15" rx="4" fill="#242938"><title>2026-03-30: 0 contributions</title></rect><rect x="202" y="214" width="15" height="15" rx="4" fill="#173B57"><title>2026-03-31: 1 contributions</title></rect><rect x="202" y="234" width="15" height="15" rx="4" fill="#242938"><title>2026-04-01: 0 contributions</title></rect><rect x="202" y="254" width="15" height="15" rx="4" fill="#242938"><title>2026-04-02: 0 contributions</title></rect><rect x="202" y="274" width="15" height="15" rx="4" fill="#242938"><title>2026-04-03: 0 contributions</title></rect><rect x="202" y="294" width="15" height="15" rx="4" fill="#242938"><title>2026-04-04: 0 contributions</title></rect><rect x="222" y="174" width="15" height="15" rx="4" fill="#242938"><title>2026-04-05: 0 contributions</title></rect><rect x="222" y="194" width="15" height="15" rx="4" fill="#173B57"><title>2026-04-06: 2 contributions</title></rect><rect x="222" y="214" width="15" height="15" rx="4" fill="#3178C6"><title>2026-04-07: 6 contributions</title></rect><rect x="222" y="234" width="15" height="15" rx="4" fill="#242938"><title>2026-04-08: 0 contributions</title></rect><rect x="222" y="254" width="15" height="15" rx="4" fill="#242938"><title>2026-04-09: 0 contributions</title></rect><rect x="222" y="274" width="15" height="15" rx="4" fill="#242938"><title>2026-04-10: 0 contributions</title></rect><rect x="222" y="294" width="15" height="15" rx="4" fill="#242938"><title>2026-04-11: 0 contributions</title></rect><rect x="242" y="174" width="15" height="15" rx="4" fill="#242938"><title>2026-04-12: 0 contributions</title></rect><rect x="242" y="194" width="15" height="15" rx="4" fill="#242938"><title>2026-04-13: 0 contributions</title></rect><rect x="242" y="214" width="15" height="15" rx="4" fill="#242938"><title>2026-04-14: 0 contributions</title></rect><rect x="242" y="234" width="15" height="15" rx="4" fill="#173B57"><title>2026-04-15: 1 contributions</title></rect><rect x="242" y="254" width="15" height="15" rx="4" fill="#BF91F3"><title>2026-04-16: 50 contributions</title></rect><rect x="242" y="274" width="15" height="15" rx="4" fill="#50FA7B"><title>2026-04-17: 55 contributions</title></rect><rect x="242" y="294" width="15" height="15" rx="4" fill="#70A5FD"><title>2026-04-18: 21 contributions</title></rect><rect x="262" y="174" width="15" height="15" rx="4" fill="#BF91F3"><title>2026-04-19: 36 contributions</title></rect><rect x="262" y="194" width="15" height="15" rx="4" fill="#3178C6"><title>2026-04-20: 13 contributions</title></rect><rect x="262" y="214" width="15" height="15" rx="4" fill="#3178C6"><title>2026-04-21: 15 contributions</title></rect><rect x="262" y="234" width="15" height="15" rx="4" fill="#3178C6"><title>2026-04-22: 13 contributions</title></rect><rect x="262" y="254" width="15" height="15" rx="4" fill="#70A5FD"><title>2026-04-23: 17 contributions</title></rect><rect x="262" y="274" width="15" height="15" rx="4" fill="#3178C6"><title>2026-04-24: 12 contributions</title></rect><rect x="262" y="294" width="15" height="15" rx="4" fill="#242938"><title>2026-04-25: 0 contributions</title></rect><rect x="282" y="174" width="15" height="15" rx="4" fill="#70A5FD"><title>2026-04-26: 25 contributions</title></rect><rect x="282" y="194" width="15" height="15" rx="4" fill="#70A5FD"><title>2026-04-27: 21 contributions</title></rect><rect x="282" y="214" width="15" height="15" rx="4" fill="#3178C6"><title>2026-04-28: 10 contributions</title></rect><rect x="282" y="234" width="15" height="15" rx="4" fill="#3178C6"><title>2026-04-29: 6 contributions</title></rect><rect x="282" y="254" width="15" height="15" rx="4" fill="#70A5FD"><title>2026-04-30: 22 contributions</title></rect><rect x="282" y="274" width="15" height="15" rx="4" fill="#70A5FD"><title>2026-05-01: 17 contributions</title></rect><rect x="282" y="294" width="15" height="15" rx="4" fill="#173B57"><title>2026-05-02: 3 contributions</title></rect><rect x="302" y="174" width="15" height="15" rx="4" fill="#173B57"><title>2026-05-03: 1 contributions</title></rect><rect x="302" y="194" width="15" height="15" rx="4" fill="#70A5FD"><title>2026-05-04: 22 contributions</title></rect><rect x="302" y="214" width="15" height="15" rx="4" fill="#BF91F3"><title>2026-05-05: 44 contributions</title></rect><rect x="302" y="234" width="15" height="15" rx="4" fill="#50FA7B"><title>2026-05-06: 64 contributions</title></rect><rect x="302" y="254" width="15" height="15" rx="4" fill="#70A5FD"><title>2026-05-07: 18 contributions</title></rect><rect x="302" y="274" width="15" height="15" rx="4" fill="#70A5FD"><title>2026-05-08: 28 contributions</title></rect><rect x="302" y="294" width="15" height="15" rx="4" fill="#70A5FD"><title>2026-05-09: 16 contributions</title></rect><rect x="322" y="174" width="15" height="15" rx="4" fill="#BF91F3"><title>2026-05-10: 40 contributions</title></rect><rect x="322" y="194" width="15" height="15" rx="4" fill="#3178C6"><title>2026-05-11: 9 contributions</title></rect><rect x="322" y="214" width="15" height="15" rx="4" fill="#3178C6"><title>2026-05-12: 7 contributions</title></rect><rect x="322" y="234" width="15" height="15" rx="4" fill="#70A5FD"><title>2026-05-13: 16 contributions</title></rect><rect x="322" y="254" width="15" height="15" rx="4" fill="#173B57"><title>2026-05-14: 1 contributions</title></rect><rect x="322" y="274" width="15" height="15" rx="4" fill="#BF91F3"><title>2026-05-15: 37 contributions</title></rect><rect x="322" y="294" width="15" height="15" rx="4" fill="#BF91F3"><title>2026-05-16: 32 contributions</title></rect><rect x="342" y="174" width="15" height="15" rx="4" fill="#BF91F3"><title>2026-05-17: 36 contributions</title></rect><rect x="342" y="194" width="15" height="15" rx="4" fill="#3178C6"><title>2026-05-18: 12 contributions</title></rect><rect x="342" y="214" width="15" height="15" rx="4" fill="#3178C6"><title>2026-05-19: 13 contributions</title></rect><rect x="342" y="234" width="15" height="15" rx="4" fill="#3178C6"><title>2026-05-20: 14 contributions</title></rect><rect x="342" y="254" width="15" height="15" rx="4" fill="#3178C6"><title>2026-05-21: 12 contributions</title></rect><rect x="342" y="274" width="15" height="15" rx="4" fill="#3178C6"><title>2026-05-22: 9 contributions</title></rect><rect x="342" y="294" width="15" height="15" rx="4" fill="#70A5FD"><title>2026-05-23: 25 contributions</title></rect><rect x="362" y="174" width="15" height="15" rx="4" fill="#3178C6"><title>2026-05-24: 15 contributions</title></rect><rect x="362" y="194" width="15" height="15" rx="4" fill="#70A5FD"><title>2026-05-25: 28 contributions</title></rect><rect x="362" y="214" width="15" height="15" rx="4" fill="#3178C6"><title>2026-05-26: 10 contributions</title></rect><rect x="362" y="234" width="15" height="15" rx="4" fill="#3178C6"><title>2026-05-27: 8 contributions</title></rect><rect x="362" y="254" width="15" height="15" rx="4" fill="#173B57"><title>2026-05-28: 5 contributions</title></rect><rect x="362" y="274" width="15" height="15" rx="4" fill="#173B57"><title>2026-05-29: 1 contributions</title></rect><rect x="362" y="294" width="15" height="15" rx="4" fill="#3178C6"><title>2026-05-30: 10 contributions</title></rect>
  <text x="520" y="163" fill="#E6EDF3" fill-opacity="1" font-family="Segoe UI, Ubuntu, sans-serif" font-size="14" font-weight="700" text-anchor="start">Monthly ramp</text><text x="840" y="163" fill="#8B949E" fill-opacity="1" font-family="Segoe UI, Ubuntu, sans-serif" font-size="12" font-weight="600" text-anchor="end">Feb 2026 -&gt; now</text><rect x="520.0" y="293.0" width="66.5" height="4.0" rx="7" fill="url(#barGradient)"/><text x="553.25" y="321" fill="#8B949E" fill-opacity="1" font-family="Segoe UI, Ubuntu, sans-serif" font-size="12" font-weight="600" text-anchor="middle">Feb</text><text x="553.25" y="285" fill="#E6EDF3" fill-opacity="1" font-family="Segoe UI, Ubuntu, sans-serif" font-size="12" font-weight="700" text-anchor="middle">0</text><rect x="604.5" y="256.3" width="66.5" height="40.7" rx="7" fill="url(#barGradient)"/><text x="637.75" y="321" fill="#8B949E" fill-opacity="1" font-family="Segoe UI, Ubuntu, sans-serif" font-size="12" font-weight="600" text-anchor="middle">Mar</text><text x="637.75" y="248.2911392405063" fill="#E6EDF3" fill-opacity="1" font-family="Segoe UI, Ubuntu, sans-serif" font-size="12" font-weight="700" text-anchor="middle">201</text><rect x="689.0" y="231.2" width="66.5" height="65.8" rx="7" fill="url(#barGradient)"/><text x="722.25" y="321" fill="#8B949E" fill-opacity="1" font-family="Segoe UI, Ubuntu, sans-serif" font-size="12" font-weight="600" text-anchor="middle">Apr</text><text x="722.25" y="223.17721518987344" fill="#E6EDF3" fill-opacity="1" font-family="Segoe UI, Ubuntu, sans-serif" font-size="12" font-weight="700" text-anchor="middle">325</text><rect x="773.5" y="185.0" width="66.5" height="112.0" rx="7" fill="url(#barGradient)"/><text x="806.75" y="321" fill="#8B949E" fill-opacity="1" font-family="Segoe UI, Ubuntu, sans-serif" font-size="12" font-weight="600" text-anchor="middle">May</text><text x="806.75" y="177.0" fill="#E6EDF3" fill-opacity="1" font-family="Segoe UI, Ubuntu, sans-serif" font-size="12" font-weight="700" text-anchor="middle">553</text>
  <text x="42" y="325" fill="#8B949E" fill-opacity="1" font-family="Segoe UI, Ubuntu, sans-serif" font-size="11" font-weight="600" text-anchor="start">Less</text><rect x="80" y="314" width="13" height="13" rx="3" fill="#242938"/><rect x="100" y="314" width="13" height="13" rx="3" fill="#173B57"/><rect x="120" y="314" width="13" height="13" rx="3" fill="#3178C6"/><rect x="140" y="314" width="13" height="13" rx="3" fill="#70A5FD"/><rect x="160" y="314" width="13" height="13" rx="3" fill="#BF91F3"/><rect x="180" y="314" width="13" height="13" rx="3" fill="#50FA7B"/><text x="208" y="325" fill="#8B949E" fill-opacity="1" font-family="Segoe UI, Ubuntu, sans-serif" font-size="11" font-weight="600" text-anchor="start">More</text>
  <text x="858" y="346" fill="#8B949E" fill-opacity="1" font-family="Segoe UI, Ubuntu, sans-serif" font-size="11" font-weight="600" text-anchor="end">Generated daily from GitHub Contributions API</text>
</svg>
