<svg xmlns="http://www.w3.org/2000/svg" width="900" height="360" viewBox="0 0 900 360" role="img" aria-labelledby="title desc">
  <title id="title">2026 GitHub build sprint for last-26</title>
  <desc id="desc">Focused contribution heatmap and monthly ramp for 2026 year to date.</desc>
  <defs>
    <linearGradient id="bg" x1="0" y1="0" x2="900" y2="360" gradientUnits="userSpaceOnUse">
      <stop offset="0" stop-color="#0D1117"/>
      <stop offset="0.55" stop-color="#101827"/>
      <stop offset="1" stop-color="#16213A"/>
    </linearGradient>
    <linearGradient id="barGradient" x1="0" y1="0" x2="0" y2="1">
      <stop offset="0" stop-color="#50FA7B"/>
      <stop offset="0.5" stop-color="#70A5FD"/>
      <stop offset="1" stop-color="#BF91F3"/>
    </linearGradient>
    <filter id="glow" x="-20%" y="-20%" width="140%" height="140%">
      <feGaussianBlur stdDeviation="10" result="blur"/>
      <feMerge>
        <feMergeNode in="blur"/>
        <feMergeNode in="SourceGraphic"/>
      </feMerge>
    </filter>
  </defs>
  <rect width="900" height="360" rx="18" fill="url(#bg)"/>
  <circle cx="778" cy="36" r="94" fill="#70A5FD" opacity="0.08" filter="url(#glow)"/>
  <text x="42" y="42" fill="#E6EDF3" fill-opacity="1" font-family="Segoe UI, Ubuntu, sans-serif" font-size="26" font-weight="800" text-anchor="start">2026 Build Sprint</text>
  <text x="42" y="65" fill="#8B949E" fill-opacity="1" font-family="Segoe UI, Ubuntu, sans-serif" font-size="13" font-weight="600" text-anchor="start">2026 year-to-date activity: Jan 01 -&gt; Jul 07</text>
  <rect x="42" y="78" width="188" height="72" rx="12" fill="#161B22" stroke="#30363D"/><text x="58" y="103" fill="#8B949E" fill-opacity="1" font-family="Segoe UI, Ubuntu, sans-serif" font-size="12" font-weight="600" text-anchor="start">2026 total</text><text x="58" y="132" fill="#50FA7B" fill-opacity="1" font-family="Segoe UI, Ubuntu, sans-serif" font-size="26" font-weight="800" text-anchor="start">1.17k</text><text x="134" y="132" fill="#B7C7E6" fill-opacity="1" font-family="Segoe UI, Ubuntu, sans-serif" font-size="12" font-weight="500" text-anchor="start">year to date</text><rect x="248" y="78" width="188" height="72" rx="12" fill="#161B22" stroke="#30363D"/><text x="264" y="103" fill="#8B949E" fill-opacity="1" font-family="Segoe UI, Ubuntu, sans-serif" font-size="12" font-weight="600" text-anchor="start">Active days</text><text x="264" y="132" fill="#70A5FD" fill-opacity="1" font-family="Segoe UI, Ubuntu, sans-serif" font-size="26" font-weight="800" text-anchor="start">78</text><text x="340" y="132" fill="#B7C7E6" fill-opacity="1" font-family="Segoe UI, Ubuntu, sans-serif" font-size="12" font-weight="500" text-anchor="start">188 days in 2026</text><rect x="454" y="78" width="188" height="72" rx="12" fill="#161B22" stroke="#30363D"/><text x="470" y="103" fill="#8B949E" fill-opacity="1" font-family="Segoe UI, Ubuntu, sans-serif" font-size="12" font-weight="600" text-anchor="start">Best day</text><text x="470" y="132" fill="#70A5FD" fill-opacity="1" font-family="Segoe UI, Ubuntu, sans-serif" font-size="26" font-weight="800" text-anchor="start">69</text><text x="546" y="132" fill="#B7C7E6" fill-opacity="1" font-family="Segoe UI, Ubuntu, sans-serif" font-size="12" font-weight="500" text-anchor="start">Mar 20</text><rect x="660" y="78" width="188" height="72" rx="12" fill="#161B22" stroke="#30363D"/><text x="676" y="103" fill="#8B949E" fill-opacity="1" font-family="Segoe UI, Ubuntu, sans-serif" font-size="12" font-weight="600" text-anchor="start">Current streak</text><text x="676" y="132" fill="#70A5FD" fill-opacity="1" font-family="Segoe UI, Ubuntu, sans-serif" font-size="26" font-weight="800" text-anchor="start">0</text><text x="752" y="132" fill="#B7C7E6" fill-opacity="1" font-family="Segoe UI, Ubuntu, sans-serif" font-size="12" font-weight="500" text-anchor="start">longest 47 days</text>
  <text x="42" y="160" fill="#8B949E" fill-opacity="1" font-family="Segoe UI, Ubuntu, sans-serif" font-size="12" font-weight="600" text-anchor="start">Jan</text><text x="142" y="160" fill="#8B949E" fill-opacity="1" font-family="Segoe UI, Ubuntu, sans-serif" font-size="12" font-weight="600" text-anchor="start">Feb</text><text x="222" y="160" fill="#8B949E" fill-opacity="1" font-family="Segoe UI, Ubuntu, sans-serif" font-size="12" font-weight="600" text-anchor="start">Mar</text><text x="302" y="160" fill="#8B949E" fill-opacity="1" font-family="Segoe UI, Ubuntu, sans-serif" font-size="12" font-weight="600" text-anchor="start">Apr</text><text x="382" y="160" fill="#8B949E" fill-opacity="1" font-family="Segoe UI, Ubuntu, sans-serif" font-size="12" font-weight="600" text-anchor="start">May</text><text x="482" y="160" fill="#8B949E" fill-opacity="1" font-family="Segoe UI, Ubuntu, sans-serif" font-size="12" font-weight="600" text-anchor="start">Jun</text><text x="562" y="160" fill="#8B949E" fill-opacity="1" font-family="Segoe UI, Ubuntu, sans-serif" font-size="12" font-weight="600" text-anchor="start">Jul</text>
  <rect x="42" y="254" width="15" height="15" rx="4" fill="#242938"><title>2026-01-01: 0 contributions</title></rect><rect x="42" y="274" width="15" height="15" rx="4" fill="#242938"><title>2026-01-02: 0 contributions</title></rect><rect x="42" y="294" width="15" height="15" rx="4" fill="#242938"><title>2026-01-03: 0 contributions</title></rect><rect x="62" y="174" width="15" height="15" rx="4" fill="#242938"><title>2026-01-04: 0 contributions</title></rect><rect x="62" y="194" width="15" height="15" rx="4" fill="#242938"><title>2026-01-05: 0 contributions</title></rect><rect x="62" y="214" width="15" height="15" rx="4" fill="#242938"><title>2026-01-06: 0 contributions</title></rect><rect x="62" y="234" width="15" height="15" rx="4" fill="#242938"><title>2026-01-07: 0 contributions</title></rect><rect x="62" y="254" width="15" height="15" rx="4" fill="#242938"><title>2026-01-08: 0 contributions</title></rect><rect x="62" y="274" width="15" height="15" rx="4" fill="#242938"><title>2026-01-09: 0 contributions</title></rect><rect x="62" y="294" width="15" height="15" rx="4" fill="#242938"><title>2026-01-10: 0 contributions</title></rect><rect x="82" y="174" width="15" height="15" rx="4" fill="#242938"><title>2026-01-11: 0 contributions</title></rect><rect x="82" y="194" width="15" height="15" rx="4" fill="#242938"><title>2026-01-12: 0 contributions</title></rect><rect x="82" y="214" width="15" height="15" rx="4" fill="#242938"><title>2026-01-13: 0 contributions</title></rect><rect x="82" y="234" width="15" height="15" rx="4" fill="#242938"><title>2026-01-14: 0 contributions</title></rect><rect x="82" y="254" width="15" height="15" rx="4" fill="#242938"><title>2026-01-15: 0 contributions</title></rect><rect x="82" y="274" width="15" height="15" rx="4" fill="#242938"><title>2026-01-16: 0 contributions</title></rect><rect x="82" y="294" width="15" height="15" rx="4" fill="#242938"><title>2026-01-17: 0 contributions</title></rect><rect x="102" y="174" width="15" height="15" rx="4" fill="#242938"><title>2026-01-18: 0 contributions</title></rect><rect x="102" y="194" width="15" height="15" rx="4" fill="#242938"><title>2026-01-19: 0 contributions</title></rect><rect x="102" y="214" width="15" height="15" rx="4" fill="#242938"><title>2026-01-20: 0 contributions</title></rect><rect x="102" y="234" width="15" height="15" rx="4" fill="#242938"><title>2026-01-21: 0 contributions</title></rect><rect x="102" y="254" width="15" height="15" rx="4" fill="#242938"><title>2026-01-22: 0 contributions</title></rect><rect x="102" y="274" width="15" height="15" rx="4" fill="#242938"><title>2026-01-23: 0 contributions</title></rect><rect x="102" y="294" width="15" height="15" rx="4" fill="#242938"><title>2026-01-24: 0 contributions</title></rect><rect x="122" y="174" width="15" height="15" rx="4" fill="#242938"><title>2026-01-25: 0 contributions</title></rect><rect x="122" y="194" width="15" height="15" rx="4" fill="#242938"><title>2026-01-26: 0 contributions</title></rect><rect x="122" y="214" width="15" height="15" rx="4" fill="#242938"><title>2026-01-27: 0 contributions</title></rect><rect x="122" y="234" width="15" height="15" rx="4" fill="#242938"><title>2026-01-28: 0 contributions</title></rect><rect x="122" y="254" width="15" height="15" rx="4" fill="#242938"><title>2026-01-29: 0 contributions</title></rect><rect x="122" y="274" width="15" height="15" rx="4" fill="#242938"><title>2026-01-30: 0 contributions</title></rect><rect x="122" y="294" width="15" height="15" rx="4" fill="#242938"><title>2026-01-31: 0 contributions</title></rect><rect x="142" y="174" width="15" height="15" rx="4" fill="#242938"><title>2026-02-01: 0 contributions</title></rect><rect x="142" y="194" width="15" height="15" rx="4" fill="#242938"><title>2026-02-02: 0 contributions</title></rect><rect x="142" y="214" width="15" height="15" rx="4" fill="#242938"><title>2026-02-03: 0 contributions</title></rect><rect x="142" y="234" width="15" height="15" rx="4" fill="#242938"><title>2026-02-04: 0 contributions</title></rect><rect x="142" y="254" width="15" height="15" rx="4" fill="#242938"><title>2026-02-05: 0 contributions</title></rect><rect x="142" y="274" width="15" height="15" rx="4" fill="#242938"><title>2026-02-06: 0 contributions</title></rect><rect x="142" y="294" width="15" height="15" rx="4" fill="#242938"><title>2026-02-07: 0 contributions</title></rect><rect x="162" y="174" width="15" height="15" rx="4" fill="#242938"><title>2026-02-08: 0 contributions</title></rect><rect x="162" y="194" width="15" height="15" rx="4" fill="#242938"><title>2026-02-09: 0 contributions</title></rect><rect x="162" y="214" width="15" height="15" rx="4" fill="#242938"><title>2026-02-10: 0 contributions</title></rect><rect x="162" y="234" width="15" height="15" rx="4" fill="#242938"><title>2026-02-11: 0 contributions</title></rect><rect x="162" y="254" width="15" height="15" rx="4" fill="#242938"><title>2026-02-12: 0 contributions</title></rect><rect x="162" y="274" width="15" height="15" rx="4" fill="#242938"><title>2026-02-13: 0 contributions</title></rect><rect x="162" y="294" width="15" height="15" rx="4" fill="#242938"><title>2026-02-14: 0 contributions</title></rect><rect x="182" y="174" width="15" height="15" rx="4" fill="#242938"><title>2026-02-15: 0 contributions</title></rect><rect x="182" y="194" width="15" height="15" rx="4" fill="#242938"><title>2026-02-16: 0 contributions</title></rect><rect x="182" y="214" width="15" height="15" rx="4" fill="#242938"><title>2026-02-17: 0 contributions</title></rect><rect x="182" y="234" width="15" height="15" rx="4" fill="#242938"><title>2026-02-18: 0 contributions</title></rect><rect x="182" y="254" width="15" height="15" rx="4" fill="#242938"><title>2026-02-19: 0 contributions</title></rect><rect x="182" y="274" width="15" height="15" rx="4" fill="#242938"><title>2026-02-20: 0 contributions</title></rect><rect x="182" y="294" width="15" height="15" rx="4" fill="#242938"><title>2026-02-21: 0 contributions</title></rect><rect x="202" y="174" width="15" height="15" rx="4" fill="#242938"><title>2026-02-22: 0 contributions</title></rect><rect x="202" y="194" width="15" height="15" rx="4" fill="#242938"><title>2026-02-23: 0 contributions</title></rect><rect x="202" y="214" width="15" height="15" rx="4" fill="#242938"><title>2026-02-24: 0 contributions</title></rect><rect x="202" y="234" width="15" height="15" rx="4" fill="#242938"><title>2026-02-25: 0 contributions</title></rect><rect x="202" y="254" width="15" height="15" rx="4" fill="#242938"><title>2026-02-26: 0 contributions</title></rect><rect x="202" y="274" width="15" height="15" rx="4" fill="#242938"><title>2026-02-27: 0 contributions</title></rect><rect x="202" y="294" width="15" height="15" rx="4" fill="#242938"><title>2026-02-28: 0 contributions</title></rect><rect x="222" y="174" width="15" height="15" rx="4" fill="#242938"><title>2026-03-01: 0 contributions</title></rect><rect x="222" y="194" width="15" height="15" rx="4" fill="#242938"><title>2026-03-02: 0 contributions</title></rect><rect x="222" y="214" width="15" height="15" rx="4" fill="#242938"><title>2026-03-03: 0 contributions</title></rect><rect x="222" y="234" width="15" height="15" rx="4" fill="#242938"><title>2026-03-04: 0 contributions</title></rect><rect x="222" y="254" width="15" height="15" rx="4" fill="#242938"><title>2026-03-05: 0 contributions</title></rect><rect x="222" y="274" width="15" height="15" rx="4" fill="#242938"><title>2026-03-06: 0 contributions</title></rect><rect x="222" y="294" width="15" height="15" rx="4" fill="#242938"><title>2026-03-07: 0 contributions</title></rect><rect x="242" y="174" width="15" height="15" rx="4" fill="#242938"><title>2026-03-08: 0 contributions</title></rect><rect x="242" y="194" width="15" height="15" rx="4" fill="#242938"><title>2026-03-09: 0 contributions</title></rect><rect x="242" y="214" width="15" height="15" rx="4" fill="#242938"><title>2026-03-10: 0 contributions</title></rect><rect x="242" y="234" width="15" height="15" rx="4" fill="#242938"><title>2026-03-11: 0 contributions</title></rect><rect x="242" y="254" width="15" height="15" rx="4" fill="#242938"><title>2026-03-12: 0 contributions</title></rect><rect x="242" y="274" width="15" height="15" rx="4" fill="#3178C6"><title>2026-03-13: 7 contributions</title></rect><rect x="242" y="294" width="15" height="15" rx="4" fill="#242938"><title>2026-03-14: 0 contributions</title></rect><rect x="262" y="174" width="15" height="15" rx="4" fill="#3178C6"><title>2026-03-15: 9 contributions</title></rect><rect x="262" y="194" width="15" height="15" rx="4" fill="#3178C6"><title>2026-03-16: 13 contributions</title></rect><rect x="262" y="214" width="15" height="15" rx="4" fill="#242938"><title>2026-03-17: 0 contributions</title></rect><rect x="262" y="234" width="15" height="15" rx="4" fill="#173B57"><title>2026-03-18: 5 contributions</title></rect><rect x="262" y="254" width="15" height="15" rx="4" fill="#3178C6"><title>2026-03-19: 7 contributions</title></rect><rect x="262" y="274" width="15" height="15" rx="4" fill="#50FA7B"><title>2026-03-20: 69 contributions</title></rect><rect x="262" y="294" width="15" height="15" rx="4" fill="#BF91F3"><title>2026-03-21: 38 contributions</title></rect><rect x="282" y="174" width="15" height="15" rx="4" fill="#70A5FD"><title>2026-03-22: 20 contributions</title></rect><rect x="282" y="194" width="15" height="15" rx="4" fill="#242938"><title>2026-03-23: 0 contributions</title></rect><rect x="282" y="214" width="15" height="15" rx="4" fill="#242938"><title>2026-03-24: 0 contributions</title></rect><rect x="282" y="234" width="15" height="15" rx="4" fill="#3178C6"><title>2026-03-25: 10 contributions</title></rect><rect x="282" y="254" width="15" height="15" rx="4" fill="#242938"><title>2026-03-26: 0 contributions</title></rect><rect x="282" y="274" width="15" height="15" rx="4" fill="#3178C6"><title>2026-03-27: 13 contributions</title></rect><rect x="282" y="294" width="15" height="15" rx="4" fill="#3178C6"><title>2026-03-28: 9 contributions</title></rect><rect x="302" y="174" width="15" height="15" rx="4" fill="#242938"><title>2026-03-29: 0 contributions</title></rect><rect x="302" y="194" width="15" height="15" rx="4" fill="#242938"><title>2026-03-30: 0 contributions</title></rect><rect x="302" y="214" width="15" height="15" rx="4" fill="#173B57"><title>2026-03-31: 1 contributions</title></rect><rect x="302" y="234" width="15" height="15" rx="4" fill="#242938"><title>2026-04-01: 0 contributions</title></rect><rect x="302" y="254" width="15" height="15" rx="4" fill="#242938"><title>2026-04-02: 0 contributions</title></rect><rect x="302" y="274" width="15" height="15" rx="4" fill="#242938"><title>2026-04-03: 0 contributions</title></rect><rect x="302" y="294" width="15" height="15" rx="4" fill="#242938"><title>2026-04-04: 0 contributions</title></rect><rect x="322" y="174" width="15" height="15" rx="4" fill="#242938"><title>2026-04-05: 0 contributions</title></rect><rect x="322" y="194" width="15" height="15" rx="4" fill="#173B57"><title>2026-04-06: 2 contributions</title></rect><rect x="322" y="214" width="15" height="15" rx="4" fill="#3178C6"><title>2026-04-07: 6 contributions</title></rect><rect x="322" y="234" width="15" height="15" rx="4" fill="#242938"><title>2026-04-08: 0 contributions</title></rect><rect x="322" y="254" width="15" height="15" rx="4" fill="#242938"><title>2026-04-09: 0 contributions</title></rect><rect x="322" y="274" width="15" height="15" rx="4" fill="#242938"><title>2026-04-10: 0 contributions</title></rect><rect x="322" y="294" width="15" height="15" rx="4" fill="#242938"><title>2026-04-11: 0 contributions</title></rect><rect x="342" y="174" width="15" height="15" rx="4" fill="#242938"><title>2026-04-12: 0 contributions</title></rect><rect x="342" y="194" width="15" height="15" rx="4" fill="#242938"><title>2026-04-13: 0 contributions</title></rect><rect x="342" y="214" width="15" height="15" rx="4" fill="#242938"><title>2026-04-14: 0 contributions</title></rect><rect x="342" y="234" width="15" height="15" rx="4" fill="#173B57"><title>2026-04-15: 1 contributions</title></rect><rect x="342" y="254" width="15" height="15" rx="4" fill="#BF91F3"><title>2026-04-16: 50 contributions</title></rect><rect x="342" y="274" width="15" height="15" rx="4" fill="#50FA7B"><title>2026-04-17: 55 contributions</title></rect><rect x="342" y="294" width="15" height="15" rx="4" fill="#70A5FD"><title>2026-04-18: 21 contributions</title></rect><rect x="362" y="174" width="15" height="15" rx="4" fill="#BF91F3"><title>2026-04-19: 36 contributions</title></rect><rect x="362" y="194" width="15" height="15" rx="4" fill="#3178C6"><title>2026-04-20: 13 contributions</title></rect><rect x="362" y="214" width="15" height="15" rx="4" fill="#3178C6"><title>2026-04-21: 15 contributions</title></rect><rect x="362" y="234" width="15" height="15" rx="4" fill="#3178C6"><title>2026-04-22: 13 contributions</title></rect><rect x="362" y="254" width="15" height="15" rx="4" fill="#70A5FD"><title>2026-04-23: 17 contributions</title></rect><rect x="362" y="274" width="15" height="15" rx="4" fill="#3178C6"><title>2026-04-24: 12 contributions</title></rect><rect x="362" y="294" width="15" height="15" rx="4" fill="#242938"><title>2026-04-25: 0 contributions</title></rect><rect x="382" y="174" width="15" height="15" rx="4" fill="#70A5FD"><title>2026-04-26: 25 contributions</title></rect><rect x="382" y="194" width="15" height="15" rx="4" fill="#70A5FD"><title>2026-04-27: 21 contributions</title></rect><rect x="382" y="214" width="15" height="15" rx="4" fill="#3178C6"><title>2026-04-28: 10 contributions</title></rect><rect x="382" y="234" width="15" height="15" rx="4" fill="#3178C6"><title>2026-04-29: 6 contributions</title></rect><rect x="382" y="254" width="15" height="15" rx="4" fill="#70A5FD"><title>2026-04-30: 22 contributions</title></rect><rect x="382" y="274" width="15" height="15" rx="4" fill="#70A5FD"><title>2026-05-01: 17 contributions</title></rect><rect x="382" y="294" width="15" height="15" rx="4" fill="#173B57"><title>2026-05-02: 3 contributions</title></rect><rect x="402" y="174" width="15" height="15" rx="4" fill="#173B57"><title>2026-05-03: 1 contributions</title></rect><rect x="402" y="194" width="15" height="15" rx="4" fill="#70A5FD"><title>2026-05-04: 22 contributions</title></rect><rect x="402" y="214" width="15" height="15" rx="4" fill="#BF91F3"><title>2026-05-05: 44 contributions</title></rect><rect x="402" y="234" width="15" height="15" rx="4" fill="#50FA7B"><title>2026-05-06: 64 contributions</title></rect><rect x="402" y="254" width="15" height="15" rx="4" fill="#70A5FD"><title>2026-05-07: 18 contributions</title></rect><rect x="402" y="274" width="15" height="15" rx="4" fill="#70A5FD"><title>2026-05-08: 28 contributions</title></rect><rect x="402" y="294" width="15" height="15" rx="4" fill="#70A5FD"><title>2026-05-09: 16 contributions</title></rect><rect x="422" y="174" width="15" height="15" rx="4" fill="#BF91F3"><title>2026-05-10: 40 contributions</title></rect><rect x="422" y="194" width="15" height="15" rx="4" fill="#3178C6"><title>2026-05-11: 9 contributions</title></rect><rect x="422" y="214" width="15" height="15" rx="4" fill="#3178C6"><title>2026-05-12: 7 contributions</title></rect><rect x="422" y="234" width="15" height="15" rx="4" fill="#70A5FD"><title>2026-05-13: 16 contributions</title></rect><rect x="422" y="254" width="15" height="15" rx="4" fill="#173B57"><title>2026-05-14: 1 contributions</title></rect><rect x="422" y="274" width="15" height="15" rx="4" fill="#BF91F3"><title>2026-05-15: 37 contributions</title></rect><rect x="422" y="294" width="15" height="15" rx="4" fill="#BF91F3"><title>2026-05-16: 32 contributions</title></rect><rect x="442" y="174" width="15" height="15" rx="4" fill="#BF91F3"><title>2026-05-17: 36 contributions</title></rect><rect x="442" y="194" width="15" height="15" rx="4" fill="#3178C6"><title>2026-05-18: 12 contributions</title></rect><rect x="442" y="214" width="15" height="15" rx="4" fill="#3178C6"><title>2026-05-19: 13 contributions</title></rect><rect x="442" y="234" width="15" height="15" rx="4" fill="#3178C6"><title>2026-05-20: 14 contributions</title></rect><rect x="442" y="254" width="15" height="15" rx="4" fill="#3178C6"><title>2026-05-21: 12 contributions</title></rect><rect x="442" y="274" width="15" height="15" rx="4" fill="#3178C6"><title>2026-05-22: 9 contributions</title></rect><rect x="442" y="294" width="15" height="15" rx="4" fill="#70A5FD"><title>2026-05-23: 25 contributions</title></rect><rect x="462" y="174" width="15" height="15" rx="4" fill="#3178C6"><title>2026-05-24: 15 contributions</title></rect><rect x="462" y="194" width="15" height="15" rx="4" fill="#70A5FD"><title>2026-05-25: 28 contributions</title></rect><rect x="462" y="214" width="15" height="15" rx="4" fill="#3178C6"><title>2026-05-26: 10 contributions</title></rect><rect x="462" y="234" width="15" height="15" rx="4" fill="#3178C6"><title>2026-05-27: 8 contributions</title></rect><rect x="462" y="254" width="15" height="15" rx="4" fill="#173B57"><title>2026-05-28: 5 contributions</title></rect><rect x="462" y="274" width="15" height="15" rx="4" fill="#173B57"><title>2026-05-29: 1 contributions</title></rect><rect x="462" y="294" width="15" height="15" rx="4" fill="#70A5FD"><title>2026-05-30: 16 contributions</title></rect><rect x="482" y="174" width="15" height="15" rx="4" fill="#3178C6"><title>2026-05-31: 8 contributions</title></rect><rect x="482" y="194" width="15" height="15" rx="4" fill="#173B57"><title>2026-06-01: 3 contributions</title></rect><rect x="482" y="214" width="15" height="15" rx="4" fill="#3178C6"><title>2026-06-02: 11 contributions</title></rect><rect x="482" y="234" width="15" height="15" rx="4" fill="#173B57"><title>2026-06-03: 3 contributions</title></rect><rect x="482" y="254" width="15" height="15" rx="4" fill="#3178C6"><title>2026-06-04: 9 contributions</title></rect><rect x="482" y="274" width="15" height="15" rx="4" fill="#173B57"><title>2026-06-05: 2 contributions</title></rect><rect x="482" y="294" width="15" height="15" rx="4" fill="#173B57"><title>2026-06-06: 4 contributions</title></rect><rect x="502" y="174" width="15" height="15" rx="4" fill="#3178C6"><title>2026-06-07: 8 contributions</title></rect><rect x="502" y="194" width="15" height="15" rx="4" fill="#3178C6"><title>2026-06-08: 12 contributions</title></rect><rect x="502" y="214" width="15" height="15" rx="4" fill="#173B57"><title>2026-06-09: 1 contributions</title></rect><rect x="502" y="234" width="15" height="15" rx="4" fill="#173B57"><title>2026-06-10: 1 contributions</title></rect><rect x="502" y="254" width="15" height="15" rx="4" fill="#173B57"><title>2026-06-11: 3 contributions</title></rect><rect x="502" y="274" width="15" height="15" rx="4" fill="#242938"><title>2026-06-12: 0 contributions</title></rect><rect x="502" y="294" width="15" height="15" rx="4" fill="#173B57"><title>2026-06-13: 2 contributions</title></rect><rect x="522" y="174" width="15" height="15" rx="4" fill="#173B57"><title>2026-06-14: 5 contributions</title></rect><rect x="522" y="194" width="15" height="15" rx="4" fill="#173B57"><title>2026-06-15: 4 contributions</title></rect><rect x="522" y="214" width="15" height="15" rx="4" fill="#173B57"><title>2026-06-16: 3 contributions</title></rect><rect x="522" y="234" width="15" height="15" rx="4" fill="#173B57"><title>2026-06-17: 2 contributions</title></rect><rect x="522" y="254" width="15" height="15" rx="4" fill="#242938"><title>2026-06-18: 0 contributions</title></rect><rect x="522" y="274" width="15" height="15" rx="4" fill="#173B57"><title>2026-06-19: 3 contributions</title></rect><rect x="522" y="294" width="15" height="15" rx="4" fill="#242938"><title>2026-06-20: 0 contributions</title></rect><rect x="542" y="174" width="15" height="15" rx="4" fill="#242938"><title>2026-06-21: 0 contributions</title></rect><rect x="542" y="194" width="15" height="15" rx="4" fill="#242938"><title>2026-06-22: 0 contributions</title></rect><rect x="542" y="214" width="15" height="15" rx="4" fill="#173B57"><title>2026-06-23: 4 contributions</title></rect><rect x="542" y="234" width="15" height="15" rx="4" fill="#242938"><title>2026-06-24: 0 contributions</title></rect><rect x="542" y="254" width="15" height="15" rx="4" fill="#242938"><title>2026-06-25: 0 contributions</title></rect><rect x="542" y="274" width="15" height="15" rx="4" fill="#242938"><title>2026-06-26: 0 contributions</title></rect><rect x="542" y="294" width="15" height="15" rx="4" fill="#242938"><title>2026-06-27: 0 contributions</title></rect><rect x="562" y="174" width="15" height="15" rx="4" fill="#242938"><title>2026-06-28: 0 contributions</title></rect><rect x="562" y="194" width="15" height="15" rx="4" fill="#242938"><title>2026-06-29: 0 contributions</title></rect><rect x="562" y="214" width="15" height="15" rx="4" fill="#242938"><title>2026-06-30: 0 contributions</title></rect><rect x="562" y="234" width="15" height="15" rx="4" fill="#242938"><title>2026-07-01: 0 contributions</title></rect><rect x="562" y="254" width="15" height="15" rx="4" fill="#242938"><title>2026-07-02: 0 contributions</title></rect><rect x="562" y="274" width="15" height="15" rx="4" fill="#242938"><title>2026-07-03: 0 contributions</title></rect><rect x="562" y="294" width="15" height="15" rx="4" fill="#242938"><title>2026-07-04: 0 contributions</title></rect><rect x="582" y="174" width="15" height="15" rx="4" fill="#242938"><title>2026-07-05: 0 contributions</title></rect><rect x="582" y="194" width="15" height="15" rx="4" fill="#242938"><title>2026-07-06: 0 contributions</title></rect><rect x="582" y="214" width="15" height="15" rx="4" fill="#242938"><title>2026-07-07: 0 contributions</title></rect>
  <text x="520" y="163" fill="#E6EDF3" fill-opacity="1" font-family="Segoe UI, Ubuntu, sans-serif" font-size="14" font-weight="700" text-anchor="start">Monthly ramp</text><text x="840" y="163" fill="#8B949E" fill-opacity="1" font-family="Segoe UI, Ubuntu, sans-serif" font-size="12" font-weight="600" text-anchor="end">2026 year to date</text><rect x="520.0" y="293.0" width="30.3" height="4.0" rx="7" fill="url(#barGradient)"/><text x="535.1428571428571" y="321" fill="#8B949E" fill-opacity="1" font-family="Segoe UI, Ubuntu, sans-serif" font-size="12" font-weight="600" text-anchor="middle">Jan</text><text x="535.1428571428571" y="285" fill="#E6EDF3" fill-opacity="1" font-family="Segoe UI, Ubuntu, sans-serif" font-size="12" font-weight="700" text-anchor="middle">0</text><rect x="568.3" y="293.0" width="30.3" height="4.0" rx="7" fill="url(#barGradient)"/><text x="583.4285714285714" y="321" fill="#8B949E" fill-opacity="1" font-family="Segoe UI, Ubuntu, sans-serif" font-size="12" font-weight="600" text-anchor="middle">Feb</text><text x="583.4285714285714" y="285" fill="#E6EDF3" fill-opacity="1" font-family="Segoe UI, Ubuntu, sans-serif" font-size="12" font-weight="700" text-anchor="middle">0</text><rect x="616.6" y="257.3" width="30.3" height="39.7" rx="7" fill="url(#barGradient)"/><text x="631.7142857142857" y="321" fill="#8B949E" fill-opacity="1" font-family="Segoe UI, Ubuntu, sans-serif" font-size="12" font-weight="600" text-anchor="middle">Mar</text><text x="631.7142857142857" y="249.2962962962963" fill="#E6EDF3" fill-opacity="1" font-family="Segoe UI, Ubuntu, sans-serif" font-size="12" font-weight="700" text-anchor="middle">201</text><rect x="664.9" y="232.8" width="30.3" height="64.2" rx="7" fill="url(#barGradient)"/><text x="680.0" y="321" fill="#8B949E" fill-opacity="1" font-family="Segoe UI, Ubuntu, sans-serif" font-size="12" font-weight="600" text-anchor="middle">Apr</text><text x="680.0" y="224.80246913580248" fill="#E6EDF3" fill-opacity="1" font-family="Segoe UI, Ubuntu, sans-serif" font-size="12" font-weight="700" text-anchor="middle">325</text><rect x="713.1" y="185.0" width="30.3" height="112.0" rx="7" fill="url(#barGradient)"/><text x="728.2857142857142" y="321" fill="#8B949E" fill-opacity="1" font-family="Segoe UI, Ubuntu, sans-serif" font-size="12" font-weight="600" text-anchor="middle">May</text><text x="728.2857142857142" y="177.0" fill="#E6EDF3" fill-opacity="1" font-family="Segoe UI, Ubuntu, sans-serif" font-size="12" font-weight="700" text-anchor="middle">567</text><rect x="761.4" y="281.2" width="30.3" height="15.8" rx="7" fill="url(#barGradient)"/><text x="776.5714285714286" y="321" fill="#8B949E" fill-opacity="1" font-family="Segoe UI, Ubuntu, sans-serif" font-size="12" font-weight="600" text-anchor="middle">Jun</text><text x="776.5714285714286" y="273.1975308641975" fill="#E6EDF3" fill-opacity="1" font-family="Segoe UI, Ubuntu, sans-serif" font-size="12" font-weight="700" text-anchor="middle">80</text><rect x="809.7" y="293.0" width="30.3" height="4.0" rx="7" fill="url(#barGradient)"/><text x="824.8571428571429" y="321" fill="#8B949E" fill-opacity="1" font-family="Segoe UI, Ubuntu, sans-serif" font-size="12" font-weight="600" text-anchor="middle">Jul</text><text x="824.8571428571429" y="285" fill="#E6EDF3" fill-opacity="1" font-family="Segoe UI, Ubuntu, sans-serif" font-size="12" font-weight="700" text-anchor="middle">0</text>
  <text x="42" y="325" fill="#8B949E" fill-opacity="1" font-family="Segoe UI, Ubuntu, sans-serif" font-size="11" font-weight="600" text-anchor="start">Less</text><rect x="80" y="314" width="13" height="13" rx="3" fill="#242938"/><rect x="100" y="314" width="13" height="13" rx="3" fill="#173B57"/><rect x="120" y="314" width="13" height="13" rx="3" fill="#3178C6"/><rect x="140" y="314" width="13" height="13" rx="3" fill="#70A5FD"/><rect x="160" y="314" width="13" height="13" rx="3" fill="#BF91F3"/><rect x="180" y="314" width="13" height="13" rx="3" fill="#50FA7B"/><text x="208" y="325" fill="#8B949E" fill-opacity="1" font-family="Segoe UI, Ubuntu, sans-serif" font-size="11" font-weight="600" text-anchor="start">More</text>
  <text x="858" y="346" fill="#8B949E" fill-opacity="1" font-family="Segoe UI, Ubuntu, sans-serif" font-size="11" font-weight="600" text-anchor="end">Generated daily from GitHub Contributions API</text>
</svg>
